<?xml version="1.0" encoding="UTF-8"?>
<svg version="1.1" xmlns="http://www.w3.org/2000/svg" width="16" height="16">
<path d="M0 0 C2.5 1.5 2.5 1.5 4 4 C4.791013 8.02098277 4.62153384 10.96411027 2.5 14.5 C-1.03588973 16.62153384 -3.97901723 16.791013 -8 16 C-10.5 14.5 -10.5 14.5 -12 12 C-12.791013 7.97901723 -12.62153384 5.03588973 -10.5 1.5 C-6.96411027 -0.62153384 -4.02098277 -0.791013 0 0 Z " fill="#60871E" transform="translate(12,0)"/>
<path d="M0 0 C2.5 1.5 2.5 1.5 4 4 C4.791013 8.02098277 4.62153384 10.96411027 2.5 14.5 C-1.03588973 16.62153384 -3.97901723 16.791013 -8 16 C-10.5 14.5 -10.5 14.5 -12 12 C-12.791013 7.97901723 -12.62153384 5.03588973 -10.5 1.5 C-6.96411027 -0.62153384 -4.02098277 -0.791013 0 0 Z M-10 3 C-10.62725161 8.41327686 -10.62725161 8.41327686 -8.4375 13.0625 C-4.98541809 14.39022381 -2.54274386 13.86897491 1 13 C2.14352916 10.71294169 2.10334439 9.40735238 2.0625 6.875 C2.041875 5.59625 2.02125 4.3175 2 3 C-1.15232289 1.9492257 -7.41949448 0.41949448 -10 3 Z " fill="#8ECD06" transform="translate(12,0)"/>
<path d="M0 0 C0.9075 0.00257812 1.815 0.00515625 2.75 0.0078125 C4.11125 0.00394531 4.11125 0.00394531 5.5 0 C7.75 0.1328125 7.75 0.1328125 8.75 1.1328125 C8.89115161 3.80340101 8.79247107 6.45713488 8.75 9.1328125 C7.75 7.1328125 6.75 5.1328125 5.75 3.1328125 C3.77 3.1328125 1.79 3.1328125 -0.25 3.1328125 C-0.91 5.1128125 -1.57 7.0928125 -2.25 9.1328125 C-2.58 9.1328125 -2.91 9.1328125 -3.25 9.1328125 C-3.34765625 2.98046875 -3.34765625 2.98046875 -3.25 1.1328125 C-2.25 0.1328125 -2.25 0.1328125 0 0 Z " fill="#374F22" transform="translate(5.25,1.8671875)"/>
<path d="M0 0 C1.98 0 3.96 0 6 0 C6 0.99 6 1.98 6 3 C5.34 2.67 4.68 2.34 4 2 C3.67 3.65 3.34 5.3 3 7 C2.67 7 2.34 7 2 7 C2 5.35 2 3.7 2 2 C1.01 2.33 0.02 2.66 -1 3 C-0.67 2.01 -0.34 1.02 0 0 Z " fill="#B0D959" transform="translate(5,4)"/>
<path d="M0 0 C0 1.98 0 3.96 0 6 C-1.32 5.67 -2.64 5.34 -4 5 C-4 3.68 -4 2.36 -4 1 C-2 0 -2 0 0 0 Z " fill="#658929" transform="translate(7,6)"/>
</svg>
